<svg id="Ebene_4" data-name="Ebene 4" xmlns="http://www.w3.org/2000/svg" viewBox="0 0 756.44 862.22"><defs><style>.cls-1{fill:#fff;}.cls-2{fill:none;stroke:#000;stroke-linejoin:round;stroke-width:8px;}</style></defs><polygon class="cls-1" points="50.22 112.44 65.33 185.33 4 196.89 50.22 112.44"/><polygon class="cls-1" points="236 135.55 100 299.11 65.33 185.33 50.22 112.44 236 135.55"/><polygon class="cls-1" points="540 553.33 324.89 858.22 263.55 395.11 540 553.33"/><polygon class="cls-1" points="392.44 337.33 540 553.33 292 286.67 338.84 260.21 392.44 337.33"/><polygon class="cls-1" points="726.66 220.89 392.44 337.33 338.84 260.21 565.78 132 726.66 220.89"/><polygon class="cls-1" points="752.44 12.89 565.78 132 338.84 260.21 338.84 260.2 292 286.67 429.78 4 752.44 12.89"/><polygon class="cls-1" points="429.78 4 292 286.67 236 135.55 429.78 4"/><polygon class="cls-1" points="292 286.67 540 553.33 263.55 395.11 100 299.11 236 135.55 292 286.67"/><polyline class="cls-2" points="263.55 395.11 324.89 858.22 540 553.33 392.44 337.33 726.66 220.89 565.78 132 752.44 12.89 429.78 4"/><polyline class="cls-2" points="50.22 112.44 4 196.89 65.33 185.33 100 299.11"/><polyline class="cls-2" points="392.44 337.33 338.84 260.21 338.84 260.2 292 286.67 429.78 4 236 135.55 100 299.11 263.55 395.11 540 553.33 292 286.67 338.84 260.21 565.78 132"/><polyline class="cls-2" points="292 286.67 236 135.55 50.22 112.44 65.33 185.33"/></svg>