<svg id="bddd68f9-3b37-4f15-84df-5c72bc277bdb" data-name="Layer 1" xmlns="http://www.w3.org/2000/svg" width="905.33624" height="646.07075" viewBox="0 0 905.33624 646.07075"><circle cx="70.66809" cy="51.34936" r="38" fill="#ff6584"/><path d="M452.93938,747.21984a296.198,296.198,0,0,0,94.979,21.98181c15.30017.95312,30.8888,1,46.10943-1.02164,13.3372-1.77151,26.88452-5.40624,38.00175-13.26973a56.3711,56.3711,0,0,0,22.00814-33.10279c3.3997-14.06136,1.96893-28.79325-2.88677-42.33648A105.48016,105.48016,0,0,0,627.9034,641.91c-9.24518-9.46255-22.19584-18.0703-36.04365-16.45011-13.311,1.55738-22.99164,12.31808-26.53688,24.76736-4.25047,14.92574.63982,30.71474,7.27143,44.15206C583.84319,717.1724,601.896,736.30456,623.276,749.908a146.88284,146.88284,0,0,0,71.739,22.98887c25.55573,1.1506,53.0421-4.775,73.178-21.287a64.08908,64.08908,0,0,0,21.61243-33.6266c3.57554-13.95914,2.64023-28.70111-.45389-42.65465-6.71715-30.29231-24.45978-56.33128-34.73332-85.32707a137.23042,137.23042,0,0,1-5.86324-21.74474c-.338-1.89756-3.22963-1.09346-2.89284.79752,5.31251,29.8284,22.12628,55.51107,33.16275,83.28925,10.05319,25.30329,16.03725,56.36762,1.14466,81.07364C766.77257,755.642,740.1671,766.47445,715.35419,769.24c-24.2619,2.70409-49.10036-1.64306-71.34253-11.58276-22.38637-10.00414-42.44841-25.58827-57.00311-45.38729-7.91092-10.76137-14.72585-22.95055-18.21992-35.89989-3.57673-13.25573-2.7379-28.271,6.72309-38.97713a26.29586,26.29586,0,0,1,16.348-8.933c6.60448-.82657,13.21839,1.02367,19.02285,4.10876,12.463,6.62408,21.73709,18.13708,28.89306,30.04345,7.39306,12.30083,12.60194,26.24354,13.11886,40.69741.48059,13.43784-3.04534,27.21538-11.1235,38.09309-16.678,22.45784-48.02324,25.184-73.74814,25.35633a293.20631,293.20631,0,0,1-92.85757-14.48733q-10.86618-3.55017-21.42841-7.94462c-1.78125-.73935-2.55806,2.16209-.79752,2.89284Z" transform="translate(-147.33188 -126.96463)" fill="#e6e6e6"/><path d="M374.95472,649.88991,366.89849,637.523a6.50737,6.50737,0,0,1,1.89839-8.99423l49.07281-38.14521a6.50737,6.50737,0,0,1,8.99423,1.89839l8.05624,12.36692a6.50736,6.50736,0,0,1-1.8984,8.99422L383.949,651.7883A6.50737,6.50737,0,0,1,374.95472,649.88991Z" transform="translate(-147.33188 -126.96463)" fill="#2f2e41"/><path d="M368.84973,628.58462l12.94276-7.09424a6.50737,6.50737,0,0,1,8.82417,2.57566l34.36489,61.91778a6.50738,6.50738,0,0,1-2.57566,8.82418l-12.94276,7.09424a6.50738,6.50738,0,0,1-8.82418-2.57566L366.27407,637.4088A6.50738,6.50738,0,0,1,368.84973,628.58462Z" transform="translate(-147.33188 -126.96463)" fill="#2f2e41"/><path d="M278.88766,514.64357a6.50021,6.50021,0,0,1-6.47631-6.07519l-.9646-14.728a6.50015,6.50015,0,0,1,6.06128-6.91113l115.38745-7.55664a13.88,13.88,0,1,1,1.814,27.70068l-115.38721,7.55615Q279.10434,514.64333,278.88766,514.64357Z" transform="translate(-147.33188 -126.96463)" fill="#f39200"/><path d="M301.64035,516.5425a6.5084,6.5084,0,0,1-6.49268-6.25781l-.82226-21.99805a6.49954,6.49954,0,0,1,6.25293-6.73779l94.88623-3.54639a6.50038,6.50038,0,0,1,6.73828,6.25293l.82227,21.99805a6.49954,6.49954,0,0,1-6.25293,6.73779L301.886,516.53762C301.80392,516.541,301.72165,516.5425,301.64035,516.5425Z" transform="translate(-147.33188 -126.96463)" fill="#ccc"/><path d="M454,749.12131V701.38152c0-41.67317-18.18139-81.63837-50.62241-107.79615-24.24773-19.55132-59.36864-34.1714-109.68137-30.90437l19.16674-76.667-165.531,113.25806,162.0463,113.25814-16.55322-72.311S393.88605,621.05251,454,749.12131Z" transform="translate(-147.33188 -126.96463)" fill="#3f3d56"/><path d="M338.23507,673.66055l-11.93758-8.67972a6.50736,6.50736,0,0,1-1.43474-9.07973l72.34167-99.49455a6.50736,6.50736,0,0,1,9.07973-1.43474l11.93759,8.67972a6.50738,6.50738,0,0,1,1.43474,9.07973L347.3148,672.22581A6.50736,6.50736,0,0,1,338.23507,673.66055Z" transform="translate(-147.33188 -126.96463)" fill="#2f2e41"/><path d="M324.932,655.93443l9.56084-11.24428a6.50736,6.50736,0,0,1,9.16244-.74137l54.19049,45.5867a6.50737,6.50737,0,0,1,.74138,9.16245l-9.56084,11.24428a6.50736,6.50736,0,0,1-9.16244.74137l-54.1905-45.5867A6.50738,6.50738,0,0,1,324.932,655.93443Z" transform="translate(-147.33188 -126.96463)" fill="#2f2e41"/><circle cx="243.08294" cy="276.96581" r="51" fill="#f39200"/><path d="M367.97995,426.39357a12.09536,12.09536,0,0,1-5.0271-.97949,8.13346,8.13346,0,0,1-4.38013-5.28467,5.47153,5.47153,0,0,1,.89673-4.77978c1.332-1.709,3.63184-2.522,6.33789-2.314l-6.69775-18.74951,1.8833-.67285,7.874,22.042-1.77539-.40283c-2.0581-.46533-4.72754-.36328-6.04443,1.32666a3.51372,3.51372,0,0,0-.53272,3.06982,6.14622,6.14622,0,0,0,3.26123,3.9419c2.78345,1.25683,6.04175.80957,9.70337.146l.35645,1.96778A32.96342,32.96342,0,0,1,367.97995,426.39357Z" transform="translate(-147.33188 -126.96463)" fill="#2f2e41"/><rect x="339.41858" y="399.05239" width="10.77167" height="1.99975" transform="translate(-222.21367 -47.52957) rotate(-11.86416)" fill="#2f2e41"/><rect x="372.69202" y="392.06118" width="10.77167" height="1.99975" transform="translate(-220.06553 -40.83816) rotate(-11.86416)" fill="#2f2e41"/><path d="M433,622.814H347a8.50951,8.50951,0,0,1-8.5-8.5l18.00415-138.06445A8.48983,8.48983,0,0,1,365,467.814h30.52a46.032,46.032,0,0,1,45.98,45.98v100.52A8.50951,8.50951,0,0,1,433,622.814Z" transform="translate(-147.33188 -126.96463)" fill="#ccc"/><path d="M298.70236,565.16847a6.51041,6.51041,0,0,1-5.94067-3.83935l-6.041-13.4668a6.49948,6.49948,0,0,1,3.27027-8.59082l105.50463-47.32959a13.87944,13.87944,0,1,1,11.36182,25.32715L301.353,564.59914A6.46386,6.46386,0,0,1,298.70236,565.16847Z" transform="translate(-147.33188 -126.96463)" fill="#f39200"/><path d="M329.476,558.21584a6.51008,6.51008,0,0,1-5.94043-3.83936L313.217,531.37453a6.50739,6.50739,0,0,1,3.27026-8.59082l86.63453-38.86426a6.49946,6.49946,0,0,1,8.59106,3.27l10.3186,23.00147a6.49946,6.49946,0,0,1-3.27026,8.59082L332.12668,557.6465A6.47179,6.47179,0,0,1,329.476,558.21584Z" transform="translate(-147.33188 -126.96463)" fill="#ccc"/><path d="M379.09894,371.95444c-8.30386-3.05878-15.12941,5-22.65356,6.84488-7.19849,1.76508-14.9536-2.38742-18.79854-8.43964-4.48576-7.06092-3.37443-16.22807.70616-23.19847,4.46924-7.6343,12.42811-12.31871,20.86358-14.36486,9.66814-2.34514,19.7416-1.19178,29.28344,1.19a121.851,121.851,0,0,1,26.44275,9.52072c7.60964,3.93856,14.82288,9.32674,19.2704,16.78951,4.04188,6.78211,6.04135,15.22347,4.04147,22.99415a24.20538,24.20538,0,0,1-6.14522,10.62633c-3.01232,3.18865-6.46356,5.95277-9.27247,9.3351-4.24711,5.11412-7.10127,13.49558-2.91378,19.54507a9.79279,9.79279,0,0,0,3.551,3.14661c1.7103.89074,3.229-1.69732,1.51416-2.59041-3.01182-1.56859-4.105-4.75218-4.024-7.99788a16.27227,16.27227,0,0,1,3.994-9.98207c2.94212-3.5355,6.57912-6.39775,9.68563-9.77744a27.02245,27.02245,0,0,0,6.41193-11.162c2.20758-8.09041.48125-16.90207-3.42621-24.19089-4.22846-7.88758-11.31619-13.84329-19.02963-18.17176-8.3944-4.7106-17.72388-7.8676-26.98663-10.37459-9.939-2.69-20.37556-4.20484-30.60326-2.34316-8.86578,1.61377-17.53057,5.89386-23.10615,13.13565-5.20445,6.75974-7.6906,15.97322-5.174,24.29135A22.23537,22.23537,0,0,0,349.42661,381.833a19.101,19.101,0,0,0,11.61383-1.515c3.89692-1.74631,7.4366-4.461,11.58117-5.6219a8.9408,8.9408,0,0,1,5.67981.15119c1.81429.6683,2.59691-2.23.79752-2.89284Z" transform="translate(-147.33188 -126.96463)" fill="#2f2e41"/><path d="M746,575.15365V527.41386c0-41.67312,18.18139-81.63841,50.62241-107.79611,24.24769-19.55131,59.36862-34.17141,109.68133-30.90434L887.137,312.0464l165.53115,113.25809L890.6218,538.56259l16.55312-72.31095S806.11389,447.0849,746,575.15365Z" transform="translate(-147.33188 -126.96463)" fill="#3f3d56"/><path d="M835.97716,336.30087a13.87982,13.87982,0,0,1,7.24341-24.60254L958.20129,299.421a6.50744,6.50744,0,0,1,7.15307,5.773l-.49707.05323.49707-.05323,1.56714,14.67627a6.49967,6.49967,0,0,1-5.77319,7.15332L846.16759,339.30087a14.096,14.096,0,0,1-1.50024.08007A13.77476,13.77476,0,0,1,835.97716,336.30087Z" transform="translate(-147.33188 -126.96463)" fill="#f39200"/><path d="M869.84728,437.68856V422.92928a6.50737,6.50737,0,0,1,6.5-6.5H999.36144a6.50737,6.50737,0,0,1,6.5,6.5v14.75928a6.50736,6.50736,0,0,1-6.5,6.5H876.34728A6.50736,6.50736,0,0,1,869.84728,437.68856Z" transform="translate(-147.33188 -126.96463)" fill="#f39200"/><path d="M811.03112,438.40682a6.45856,6.45856,0,0,1-3.24878-3.76757l-4.62769-14.01563a6.50739,6.50739,0,0,1,4.13453-8.21L924.1007,373.84481a6.5,6.5,0,0,1,8.2102,4.13428l-.47485.15674.47485-.15674,4.62769,14.01514a6.50738,6.50738,0,0,1-4.13452,8.21L815.99255,438.773a6.46148,6.46148,0,0,1-4.96143-.36621Z" transform="translate(-147.33188 -126.96463)" fill="#f39200"/><path d="M964.173,442.73739l-52.425-47.269a6.5078,6.5078,0,0,1-.47461-9.18018l9.88354-10.96191a6.501,6.501,0,0,1,9.18018-.47461l52.425,47.269a6.5078,6.5078,0,0,1,.47461,9.18018l-9.88355,10.96142a6.45565,6.45565,0,0,1-4.4917,2.13867q-.17249.00952-.34375.00928A6.45329,6.45329,0,0,1,964.173,442.73739Z" transform="translate(-147.33188 -126.96463)" fill="#f39200"/><circle cx="683.55953" cy="94.95856" r="51" fill="#f39200"/><path d="M771.20153,424.32577a39.78529,39.78529,0,0,1,0-40.19385l54.06055-93.63574a6.50018,6.50018,0,0,1,11.25854,0l83.24072,144.17676a6.50021,6.50021,0,0,1-5.62939,9.75H806.01061A39.78417,39.78417,0,0,1,771.20153,424.32577Z" transform="translate(-147.33188 -126.96463)" fill="#ccc"/><path d="M872.92907,241.33212c3.30591-.0918,7.42016-.20655,10.58984-2.522a8.13389,8.13389,0,0,0,3.2002-6.07226,5.4712,5.4712,0,0,0-1.86035-4.49364c-1.65528-1.39943-4.07251-1.72706-6.67823-.96144l2.69922-19.72559-1.98144-.27148L875.725,230.47567l1.65454-.75928c1.91846-.87988,4.55176-1.32714,6.18823.05518a3.51537,3.51537,0,0,1,1.15259,2.89551,6.14757,6.14757,0,0,1-2.3811,4.52783c-2.4668,1.80176-5.74634,2.03418-9.46583,2.13818Z" transform="translate(-147.33188 -126.96463)" fill="#2f2e41"/><rect x="709.34694" y="82.29376" width="10.77173" height="2" fill="#2f2e41"/><path d="M800.65288,161.77542a42.23312,42.23312,0,0,0-21.24577-27.27793,40.88246,40.88246,0,0,0-35.08343-1.08855,40.41676,40.41676,0,0,0-23.24353,27.14311,42.1531,42.1531,0,0,0-.64007,18.48856,47.958,47.958,0,0,0,8.0982,18.00169c3.9508,5.72093,8.59516,10.91288,12.85933,16.39413a152.00647,152.00647,0,0,1,11.666,17.29983,153.06686,153.06686,0,0,1,19.57443,59.127,91.18114,91.18114,0,0,1,.45936,18.98441c-1.14842,12.28625-5.908,24.32019-16.83277,31.00545-5.8082,3.55425-12.51115,5.38972-19.14248,6.67363a87.125,87.125,0,0,1-22.65726,1.77051c-12.84322-.91272-25.69542-6.27228-33.15426-17.18692a30.62085,30.62085,0,0,1-3.83791-7.885c-.59407-1.84171,2.3016-2.63045,2.89284-.79752,3.95063,12.24767,15.94006,19.79724,28.07418,22.09919a68.67384,68.67384,0,0,0,22.82579-.02232c6.86226-1.0246,13.93419-2.443,20.2235-5.47119A30.2837,30.2837,0,0,0,765.04824,326.498a44.19189,44.19189,0,0,0,4.99446-17.08815c1.33666-13.08392-.84031-26.6293-4.1-39.28452a151.20365,151.20365,0,0,0-15.8988-38.61334,148.48615,148.48615,0,0,0-11.81421-17.286c-4.29732-5.4174-8.88171-10.62682-12.75737-16.36565a49.30412,49.30412,0,0,1-7.9251-18.02228,45.67539,45.67539,0,0,1,.32554-18.785,43.28815,43.28815,0,0,1,21.89084-28.77459c10.80769-5.70123,23.97566-7.06627,35.53662-2.86525A45.3862,45.3862,0,0,1,800.7106,152.788a43.2698,43.2698,0,0,1,2.83512,8.18993c.44179,1.8777-2.45014,2.67908-2.89284.79752Z" transform="translate(-147.33188 -126.96463)" fill="#2f2e41"/><path d="M790.90516,164.21424a23.09365,23.09365,0,0,0-26.96649-14.86118c-1.87808.43926-2.67966-2.45263-.79752-2.89284A25.81524,25.81524,0,0,1,793.798,163.41673c.62925,1.82957-2.2676,2.6154-2.89284.79751Z" transform="translate(-147.33188 -126.96463)" fill="#2f2e41"/><path d="M790.44762,175.05624a5.50646,5.50646,0,0,1,2.88135-7.22461l13.78125-5.92334a5.50014,5.50014,0,0,1,4.34351,10.10644l-13.781,5.92334a5.50054,5.50054,0,0,1-7.2251-2.88183Z" transform="translate(-147.33188 -126.96463)" fill="#2f2e41"/><path d="M824.36755,456.13436,809.65636,454.94a6.50785,6.50785,0,0,1-5.95239-7.00489l9.35742-115.25537a13.87976,13.87976,0,1,1,27.66846,2.24658l-9.35767,115.25489a6.50044,6.50044,0,0,1-6.468,5.97461C824.72619,456.15585,824.547,456.14852,824.36755,456.13436Z" transform="translate(-147.33188 -126.96463)" fill="#f39200"/><path d="M160.30154,226.6499c-5.25751-12.2911,1.94929-28.3264,14.63126-32.5549s28.07,4.27309,31.24083,17.25994a34.94106,34.94106,0,1,1,66.79494-7.5048c7.6447-11.27017,24.04788-15.52662,36.208-9.39559s18.49177,21.8502,13.97633,34.69812l-167.37657-.299" transform="translate(-147.33188 -126.96463)" fill="#f2f2f2"/><path d="M499.30154,366.6499c-5.25751-12.2911,1.94929-28.3264,14.63126-32.5549s28.07,4.27309,31.24083,17.25994a34.94106,34.94106,0,1,1,66.79494-7.5048c7.6447-11.27017,24.04788-15.52662,36.208-9.39559s18.49177,21.8502,13.97633,34.69812l-167.37657-.299" transform="translate(-147.33188 -126.96463)" fill="#f2f2f2"/></svg>